HIERARCHY
ROOT Hips
{
	OFFSET 0.000000 0.000000 0.000000
	CHANNELS 6 Xposition Yposition Zposition Xrotation Yrotation Zrotation
	JOINT LeftUpLeg_virtual
	{
		OFFSET 0.000000 0.000000 0.000000
		CHANNELS 3 Xrotation Yrotation Zrotation
		JOINT LeftUpLeg
		{
			OFFSET 11.394100 -6.187798 -0.413800
			CHANNELS 3 Xrotation Yrotation Zrotation
			JOINT LeftLeg
			{
				OFFSET 0.430247 -32.302673 3.732800
				CHANNELS 3 Xrotation Yrotation Zrotation
				JOINT LeftFoot
				{
					OFFSET -0.430247 -48.264931 -6.423300
					CHANNELS 3 Xrotation Yrotation Zrotation
					JOINT LeftToeBase
					{
						OFFSET 4.230900 -16.068199 23.438400
						CHANNELS 3 Xrotation Yrotation Zrotation
						JOINT LeftToe_End
						{
							OFFSET 4.510700 0.695400 19.974600
							CHANNELS 3 Xrotation Yrotation Zrotation
							End Site
							{
								OFFSET 0 0 0
							}
						}
					}
				}
			}
		}
	}
	JOINT RightUpLeg_virtual
	{
		OFFSET 0.000000 0.000000 0.000000
		CHANNELS 3 Xrotation Yrotation Zrotation
		JOINT RightUpLeg
		{
			OFFSET -11.333700 -6.187798 -0.413800
			CHANNELS 3 Xrotation Yrotation Zrotation
			JOINT RightLeg
			{
				OFFSET -0.430392 -32.302628 3.733000
				CHANNELS 3 Xrotation Yrotation Zrotation
				JOINT RightFoot
				{
					OFFSET 0.430392 -48.264973 -6.423500
					CHANNELS 3 Xrotation Yrotation Zrotation
					JOINT RightToeBase
					{
						OFFSET -4.230900 -16.068199 23.438400
						CHANNELS 3 Xrotation Yrotation Zrotation
						JOINT RightToe_End
						{
							OFFSET -4.510700 0.695400 19.974600
							CHANNELS 3 Xrotation Yrotation Zrotation
							End Site
							{
								OFFSET 0 0 0
							}
						}
					}
				}
			}
		}
	}
	JOINT Spine_virtual
	{
		OFFSET 0.000000 0.000000 0.000000
		CHANNELS 3 Xrotation Yrotation Zrotation
		JOINT Spine
		{
			OFFSET -0.002400 12.777504 0.315300
			CHANNELS 3 Xrotation Yrotation Zrotation
			JOINT Spine1
			{
				OFFSET -0.002067 5.816869 0.032633
				CHANNELS 3 Xrotation Yrotation Zrotation
				JOINT Spine1_split
				{
					OFFSET -0.002067 5.816869 0.032633
					CHANNELS 3 Xrotation Yrotation Zrotation
					JOINT Spine2
					{
						OFFSET -0.002067 5.816869 0.032633
						CHANNELS 3 Xrotation Yrotation Zrotation
						JOINT Neck_virtual
						{
							OFFSET 0.000000 0.000000 0.000000
							CHANNELS 3 Xrotation Yrotation Zrotation
							JOINT Neck
							{
								OFFSET -0.003700 21.199493 -0.826900
								CHANNELS 3 Xrotation Yrotation Zrotation
								JOINT Head
								{
									OFFSET 0.000000 20.442200 4.834800
									CHANNELS 3 Xrotation Yrotation Zrotation
									JOINT HeadTop_End
									{
										OFFSET 0.000000 34.668396 4.968400
										CHANNELS 3 Xrotation Yrotation Zrotation
										End Site
										{
											OFFSET 0 0 0
										}
									}
								}
							}
						}
						JOINT LeftShoulder_virtual
						{
							OFFSET 0.000000 0.000000 0.000000
							CHANNELS 3 Xrotation Yrotation Zrotation
							JOINT LeftShoulder
							{
								OFFSET 3.288150 8.794197 -1.372250
								CHANNELS 3 Xrotation Yrotation Zrotation
								JOINT LeftShoulder_split
								{
									OFFSET 3.288150 8.794197 -1.372250
									CHANNELS 3 Xrotation Yrotation Zrotation
									JOINT LeftArm
									{
										OFFSET 11.953299 -2.279007 -0.146200
										CHANNELS 3 Xrotation Yrotation Zrotation
										JOINT LeftForeArm
										{
											OFFSET 18.448900 0.000000 0.000000
											CHANNELS 3 Xrotation Yrotation Zrotation
											JOINT LeftHand
											{
												OFFSET 29.527798 0.000000 0.000000
												CHANNELS 3 Xrotation Yrotation Zrotation
												End Site
												{
													OFFSET 0 0 0
												}
											}
										}
									}
								}
							}
						}
						JOINT RightShoulder_virtual
						{
							OFFSET 0.000000 0.000000 0.000000
							CHANNELS 3 Xrotation Yrotation Zrotation
							JOINT RightShoulder
							{
								OFFSET -3.249400 8.794197 -1.372250
								CHANNELS 3 Xrotation Yrotation Zrotation
								JOINT RightShoulder_split
								{
									OFFSET -3.249400 8.794197 -1.372250
									CHANNELS 3 Xrotation Yrotation Zrotation
									JOINT RightArm
									{
										OFFSET -11.953299 -2.279007 -0.146200
										CHANNELS 3 Xrotation Yrotation Zrotation
										JOINT RightForeArm
										{
											OFFSET -18.448900 0.000000 0.000000
											CHANNELS 3 Xrotation Yrotation Zrotation
											JOINT RightHand
											{
												OFFSET -29.527802 0.000000 0.000000
												CHANNELS 3 Xrotation Yrotation Zrotation
												End Site
												{
													OFFSET 0 0 0
												}
											}
										}
									}
								}
							}
						}
					}
				}
			}
		}
	}
}
MOTION
Frames: 7
Frame Time: 0.03333333
4.733091 79.469269 -3.840252 0.000000 0.000000 0.000000 10.214279 8.367188 0.392268 -51.847601 7.613789 7.084427 69.578345 4.370435 2.790617 -23.418144 2.168236 -7.358485 -1.837992 -0.888901 -2.594067 0.000000 0.000000 0.000000 10.589614 9.273748 0.269723 -43.783732 -9.422105 -3.591569 73.454142 -4.266347 -2.236322 -37.115815 -16.655326 12.503962 8.721968 5.161631 -22.503371 0.000000 0.000000 0.000000 8.694249 12.408724 -0.206158 6.863638 -0.740686 1.441387 8.056733 -2.044484 0.997092 0.092308 -0.402795 0.047875 0.000000 0.000000 0.000000 8.105251 1.103558 1.630220 -25.396996 9.527313 17.693503 -20.213562 -42.002180 -14.430622 0.000000 0.000000 0.000000 7.337618 -1.417792 0.426595 3.815156 -21.846992 3.333679 3.113335 1.838072 -2.685040 -61.616072 -31.396993 -63.008133 -177.987640 -69.766339 -173.571868 0.000000 0.000000 0.000000 9.031468 -0.492477 1.820192 -4.581393 10.590509 9.610425 -3.100367 0.301382 6.931619 -48.006360 35.108654 55.996425 -142.425714 61.163893 133.627829 0.000000 0.000000 0.000000 
4.740201 79.468956 -3.820332 0.000000 0.000000 0.000000 10.222976 8.364284 0.380976 -51.853881 7.623319 7.102654 69.589239 4.368819 2.785193 -23.426058 2.167991 -7.362166 -1.835040 -0.890470 -2.586639 0.000000 0.000000 0.000000 10.591057 9.274016 0.258293 -43.778876 -9.411324 -3.587191 73.454177 -4.267783 -2.232723 -37.108995 -16.652430 12.499529 8.725279 5.162451 -22.500337 0.000000 0.000000 0.000000 8.690443 12.403546 -0.221864 6.853306 -0.737518 1.439737 8.056163 -2.043873 0.991563 0.091768 -0.402167 0.045641 0.000000 0.000000 0.000000 8.118418 1.106200 1.623561 -25.388481 9.522237 17.714152 -20.220101 -41.958614 -14.441303 0.000000 0.000000 0.000000 7.333054 -1.413182 0.425635 3.817510 -21.843997 3.352160 3.125768 1.814101 -2.685576 -61.720069 -31.442947 -63.067672 -177.966658 -69.653873 -173.555885 0.000000 0.000000 0.000000 9.024066 -0.495376 1.815028 -4.580801 10.556753 9.591969 -3.120263 0.301160 6.912984 -48.123843 35.139701 56.114792 -142.716407 61.028533 133.898045 0.000000 0.000000 0.000000 
4.752829 79.468277 -3.796337 0.000000 0.000000 0.000000 10.232878 8.345111 0.361976 -51.864126 7.636011 7.129209 69.613329 4.371264 2.779020 -23.446223 2.168874 -7.361093 -1.849430 -0.889081 -2.593454 0.000000 0.000000 0.000000 10.596939 9.256967 0.239900 -43.781202 -9.407593 -3.583101 73.445195 -4.269091 -2.228540 -37.084348 -16.643653 12.499095 8.721190 5.164624 -22.496051 0.000000 0.000000 0.000000 8.696123 12.383597 -0.244798 6.843406 -0.721397 1.442770 8.049292 -2.031780 0.978829 0.091583 -0.399686 0.046050 0.000000 0.000000 0.000000 8.129997 1.118255 1.607907 -25.403190 9.507237 17.754354 -20.235272 -41.905560 -14.450898 0.000000 0.000000 0.000000 7.320085 -1.396713 0.417386 3.817667 -21.836603 3.367406 3.127160 1.777566 -2.688516 -61.833798 -31.518789 -63.157434 -177.852826 -69.540656 -173.446958 0.000000 0.000000 0.000000 9.010674 -0.489392 1.801178 -4.577862 10.515746 9.578544 -3.088598 0.284961 6.922472 -48.305041 35.146022 56.287753 -142.994054 60.897564 134.149696 0.000000 0.000000 0.000000 
4.769629 79.467178 -3.773647 0.000000 0.000000 0.000000 10.240987 8.315877 0.342404 -51.872667 7.650433 7.154644 69.641920 4.377075 2.773359 -23.470195 2.169420 -7.356962 -1.884647 -0.885298 -2.607451 0.000000 0.000000 0.000000 10.605910 9.225406 0.221369 -43.788411 -9.409830 -3.581163 73.427860 -4.270154 -2.224798 -37.050761 -16.631705 12.500030 8.713300 5.167608 -22.492199 0.000000 0.000000 0.000000 8.708665 12.355183 -0.266393 6.836090 -0.696222 1.449506 8.039633 -2.011885 0.961944 0.091362 -0.397013 0.048024 0.000000 0.000000 0.000000 8.135610 1.137310 1.587080 -25.440850 9.488127 17.801322 -20.271761 -41.852370 -14.468294 0.000000 0.000000 0.000000 7.304973 -1.373762 0.401849 3.816042 -21.832326 3.372020 3.117880 1.759454 -2.695104 -61.917318 -31.590219 -63.231562 -177.663370 -69.491034 -173.253882 0.000000 0.000000 0.000000 8.994724 -0.474612 1.782834 -4.575985 10.479766 9.577873 -3.025121 0.281297 6.956289 -48.486126 35.122004 56.451397 -143.151490 60.832356 134.281369 0.000000 0.000000 0.000000 
4.787536 79.468010 -3.751999 0.000000 0.000000 0.000000 10.244688 8.284094 0.328737 -51.870574 7.665728 7.169448 69.665013 4.385003 2.769836 -23.488510 2.169696 -7.351514 -1.927454 -0.880738 -2.622807 0.000000 0.000000 0.000000 10.614341 9.188422 0.209236 -43.796402 -9.416188 -3.583208 73.406160 -4.272116 -2.221932 -37.017870 -16.621306 12.498982 8.710827 5.169261 -22.489607 0.000000 0.000000 0.000000 8.727469 12.329454 -0.280387 6.833058 -0.669735 1.456651 8.029921 -1.989526 0.943506 0.090368 -0.395265 0.050403 0.000000 0.000000 0.000000 8.132684 1.158442 1.566402 -25.495643 9.471823 17.840606 -20.333448 -41.800870 -14.501417 0.000000 0.000000 0.000000 7.293093 -1.351288 0.381597 3.814187 -21.835717 3.368214 3.104209 1.769288 -2.708335 -61.952036 -31.642316 -63.258903 -177.437482 -69.532378 -173.011000 0.000000 0.000000 0.000000 8.980033 -0.454249 1.764067 -4.576401 10.458306 9.594181 -2.970503 0.288436 6.987684 -48.625018 35.077482 56.558064 -143.136436 60.862866 134.248365 0.000000 0.000000 0.000000 
4.803898 79.472374 -3.736988 0.000000 0.000000 0.000000 10.246934 8.257474 0.325789 -51.859676 7.681562 7.168654 69.673667 4.395298 2.767893 -23.499990 2.170994 -7.344730 -1.952553 -0.876301 -2.639318 0.000000 0.000000 0.000000 10.620382 9.156073 0.207094 -43.800473 -9.422985 -3.589318 73.385335 -4.274032 -2.221000 -36.990095 -16.617034 12.498204 8.713439 5.168891 -22.489436 0.000000 0.000000 0.000000 8.747237 12.312540 -0.280364 6.834583 -0.650161 1.462028 8.021826 -1.970092 0.926226 0.088654 -0.394009 0.051355 0.000000 0.000000 0.000000 8.122324 1.176048 1.549754 -25.553922 9.464117 17.862227 -20.406683 -41.747827 -14.544621 0.000000 0.000000 0.000000 7.286367 -1.335117 0.359853 3.813206 -21.843157 3.360074 3.080840 1.784968 -2.734785 -61.941483 -31.658740 -63.235490 -177.232044 -69.647398 -172.775673 0.000000 0.000000 0.000000 8.970466 -0.433755 1.748465 -4.578972 10.451146 9.623312 -2.953195 0.289527 7.007394 -48.702244 35.038686 56.592321 -142.996909 60.962491 134.103046 0.000000 0.000000 0.000000 
4.817164 79.480263 -3.727772 0.000000 0.000000 0.000000 10.248206 8.239595 0.333598 -51.839865 7.698156 7.154428 69.659986 4.404914 2.769076 -23.505459 2.172440 -7.339493 -1.957874 -0.873171 -2.648442 0.000000 0.000000 0.000000 10.624681 9.134838 0.215384 -43.798711 -9.425093 -3.599155 73.365569 -4.273435 -2.224012 -36.969676 -16.617915 12.503393 8.715275 5.167293 -22.491190 0.000000 0.000000 0.000000 8.763101 12.306200 -0.268869 6.839452 -0.641877 1.464391 8.014948 -1.957529 0.912880 0.087192 -0.394402 0.049690 0.000000 0.000000 0.000000 8.107646 1.187173 1.538905 -25.598461 9.467619 17.861488 -20.482812 -41.690822 -14.599418 0.000000 0.000000 0.000000 7.284893 -1.326469 0.342951 3.812475 -21.843107 3.351566 3.059919 1.801566 -2.774051 -61.910932 -31.651664 -63.193504 -177.096492 -69.779842 -172.603156 0.000000 0.000000 0.000000 8.964891 -0.419763 1.736419 -4.582706 10.447819 9.653176 -2.961048 0.286605 7.022255 -48.722120 35.029506 56.571595 -142.844131 61.069350 133.958547 0.000000 0.000000 0.000000 
